#!OML:ASF I:\Actors\actors\Patient Classification 2\Patient 1\Session 1\actor1.ASF
:FULLY-SPECIFIED
:DEGREES
860
root -0.828249 18.6481 5.90243 -0.521031 -4.44887 -4.19056
lowerback 3.31068 1.29689 2.05719
upperback -0.509773 1.85304 1.65135
thorax -2.36906 0.907395 0.444725
lowerneck -8.99837 -1.96167 -2.47879
upperneck 16.6655 -2.88716 3.37995
head 6.63873 -1.27267 1.25095
rclavicle -1.77137e-014 -1.52816e-014
rhumerus -47.2654 -2.43036 -87.3342
rradius 43.6851
rwrist 14.5355
rhand -10.245 -27.7333
rfingers 7.12502
rthumb 15.7477 -57.1126
lclavicle -1.77137e-014 -1.52816e-014
lhumerus -40.9909 -4.6787 95.8924
lradius 38.6417
lwrist -4.95083
lhand -4.41427 -21.3665
lfingers 7.12502
lthumb 21.3561 7.47661
rfemur 9.29501 -3.27372 17.8189
rtibia -1.59028e-015
rfoot -12.891 -5.38536
rtoes -5.20212
lfemur 0.154883 -10.0084 -11.6706
ltibia 21.8086
lfoot -24.4282 10.6115
ltoes -55.0785
861
root -0.826501 18.6484 5.89966 -0.535204 -4.47461 -4.19932
lowerback 3.38117 1.29816 2.09289
upperback -0.509746 1.85818 1.63569
thorax -2.40696 0.909037 0.406679
lowerneck -8.95492 -1.95248 -2.46579
upperneck 16.6114 -2.8749 3.37485
head 6.61317 -1.26717 1.24852
rclavicle 1.89093e-015 -1.43436e-014
rhumerus -47.3175 -2.50312 -87.2591
rradius 43.6198
rwrist 14.5897
rhand -10.179 -27.6628
rfingers 7.12502
rthumb 15.8113 -57.0371
lclavicle 1.89093e-015 -1.43436e-014
lhumerus -41.0667 -4.46931 95.7278
lradius 38.5484
lwrist -4.73704
lhand -4.34648 -21.2873
lfingers 7.12502
lthumb 21.4212 7.54849
rfemur 9.302 -3.24773 17.8302
rtibia -1.59028e-014
rfoot -12.882 -5.41303
rtoes -5.41954
lfemur 0.17367 -10.0194 -11.6724
ltibia 21.801
lfoot -24.4426 10.6306
ltoes -55.0704
862
root -0.825346 18.6492 5.89658 -0.532273 -4.51833 -4.21182
lowerback 3.4317 1.30508 2.10471
upperback -0.503963 1.86947 1.63646
thorax -2.42898 0.914333 0.39908
lowerneck -8.94001 -1.94515 -2.45782
upperneck 16.5718 -2.86232 3.35843
head 6.59714 -1.26234 1.24309
rclavicle 1.31765e-015 -9.41121e-015
rhumerus -47.3366 -2.5982 -87.1516
rradius 43.5293
rwrist 14.6701
rhand -10.179 -27.6118
rfingers 7.12502
rthumb 15.8112 -56.9861
lclavicle 1.31765e-015 -9.41121e-015
lhumerus -41.1309 -4.26489 95.5686
lradius 38.4811
lwrist -4.4818
lhand -4.30128 -21.1697
lfingers 7.12502
lthumb 21.4646 7.66115
rfemur 9.28582 -3.20454 17.8481
rtibia 3.18055e-015
rfoot -12.838 -5.43868
rtoes -5.62281
lfemur 0.179742 -10.0417 -11.669
ltibia 21.7868
lfoot -24.4849 10.651
ltoes -55.0286
863
root -0.824173 18.6496 5.89465 -0.520886 -4.56112 -4.19146
lowerback 3.43907 1.31187 2.07619
upperback -0.496682 1.87729 1.63365
thorax -2.42637 0.918658 0.411628
lowerneck -8.92983 -1.9428 -2.4322
upperneck 16.5731 -2.85674 3.32042
head 6.59471 -1.26127 1.22723
rclavicle 4.01381e-015 4.20554e-015
rhumerus -47.3548 -2.66668 -87.0568
rradius 43.4157
rwrist 14.7224
rhand -10.2295 -27.6231
rfingers 7.12502
rthumb 15.7626 -57.0012
lclavicle 4.01381e-015 4.20554e-015
lhumerus -41.1815 -3.98613 95.3731
lradius 38.3716
lwrist -4.2862
lhand -4.31119 -21.1252
lfingers 7.12502
lthumb 21.4551 7.7067
rfemur 9.25897 -3.16147 17.8248
rtibia -7.95139e-015
rfoot -12.8077 -5.44492
rtoes -5.82284
lfemur 0.177679 -10.0659 -11.7035
ltibia 21.7738
lfoot -24.5057 10.7047
ltoes -55.0271
864
root -0.822272 18.6502 5.89299 -0.499752 -4.59242 -4.18194
lowerback 3.45219 1.31408 2.08182
upperback -0.504672 1.88091 1.62457
thorax -2.44145 0.920167 0.39853
lowerneck -8.88953 -1.94082 -2.44406
upperneck 16.5497 -2.85535 3.33832
head 6.58054 -1.26046 1.23536
rclavicle -1.8775e-014 -7.57867e-016
rhumerus -47.3926 -2.76494 -86.9689
rradius 43.3007
rwrist 14.802
rhand -10.2854 -27.6347
rfingers 7.12502
rthumb 15.7088 -57.0171
lclavicle -1.8775e-014 -7.57867e-016
lhumerus -41.2373 -3.65002 95.1369
lradius 38.2484
lwrist -4.18588
lhand -4.21759 -21.1201
lfingers 7.12502
lthumb 21.545 7.70157
rfemur 9.22549 -3.13005 17.8097
rtibia 7.95139e-015
rfoot -12.8119 -5.44479
rtoes -5.83996
lfemur 0.166903 -10.0712 -11.7236
ltibia 21.7565
lfoot -24.4759 10.7821
ltoes -55.1281
865
root -0.820071 18.6508 5.89211 -0.472646 -4.60924 -4.16405
lowerback 3.45658 1.31077 2.07946
upperback -0.511381 1.87655 1.6175
thorax -2.45068 0.917873 0.392624
lowerneck -8.90979 -1.93361 -2.48822
upperneck 16.568 -2.84498 3.3743
head 6.59073 -1.25494 1.25492
rclavicle 1.72664e-014 1.80956e-014
rhumerus -47.4376 -2.86238 -86.8868
rradius 43.2193
rwrist 14.8527
rhand -10.3643 -27.5924
rfingers 7.12502
rthumb 15.6328 -56.9808
lclavicle 1.72664e-014 1.80956e-014
lhumerus -41.2834 -3.33159 94.9192
lradius 38.1271
lwrist -4.12909
lhand -4.1064 -21.1088
lfingers 7.12502
lthumb 21.6518 7.70055
rfemur 9.18647 -3.11316 17.785
rtibia 7.95139e-015
rfoot -12.8182 -5.4584
rtoes -5.77398
lfemur 0.147506 -10.0629 -11.7496
ltibia 21.7393
lfoot -24.4455 10.8148
ltoes -55.2288
866
root -0.818212 18.6509 5.89213 -0.462763 -4.62325 -4.10637
lowerback 3.43548 1.31179 2.01871
upperback -0.489423 1.87382 1.60882
thorax -2.41786 0.917649 0.418632
lowerneck -9.00305 -1.92601 -2.47882
upperneck 16.638 -2.82679 3.31979
head 6.628 -1.24863 1.23674
rclavicle 9.95789e-015 -1.88845e-015
rhumerus -47.4486 -2.96073 -86.7908
rradius 43.1001
rwrist 14.88
rhand -10.0489 -27.9356
rfingers 7.12502
rthumb 15.9365 -57.2999
lclavicle 9.95789e-015 -1.88845e-015
lhumerus -41.2767 -3.01905 94.7245
lradius 37.9566
lwrist -4.18841
lhand -4.16707 -21.2007
lfingers 7.12502
lthumb 21.5935 7.61537
rfemur 9.16403 -3.09793 17.7164
rtibia 1.74931e-014
rfoot -12.8301 -5.48267
rtoes -5.92093
lfemur 0.141411 -10.0712 -11.8245
ltibia 21.7305
lfoot -24.4728 10.8035
ltoes -55.1913
867
root -0.816663 18.6509 5.89112 -0.455954 -4.61893 -4.08391
lowerback 3.4326 1.30936 2.00068
upperback -0.466095 1.86885 1.59886
thorax -2.3925 0.915625 0.419141
lowerneck -9.11055 -1.93224 -2.41463
upperneck 16.7243 -2.8291 3.22314
head 6.67231 -1.25207 1.19409
rclavicle 1.88984e-014 4.69008e-015
rhumerus -47.4439 -3.13113 -86.6696
rradius 42.9346
rwrist 14.9951
rhand -8.46338 -29.0647
rfingers 7.12502
rthumb 17.4629 -58.3003
lclavicle 1.88984e-014 4.69008e-015
lhumerus -41.2481 -2.75749 94.5165
lradius 37.7553
lwrist -4.31674
lhand -4.26688 -21.3164
lfingers 7.12502
lthumb 21.4977 7.51069
rfemur 9.15065 -3.10166 17.6877
rtibia -1.90833e-014
rfoot -12.8423 -5.49591
rtoes -6.07576
lfemur 0.124744 -10.0382 -11.8442
ltibia 21.7259
lfoot -24.459 10.7568
ltoes -55.155
868
root -0.815431 18.6511 5.88969 -0.446957 -4.59563 -4.08567
lowerback 3.44613 1.29462 2.0019
upperback -0.456002 1.84937 1.59657
thorax -2.38972 0.905929 0.416943
lowerneck -9.09142 -1.93509 -2.43576
upperneck 16.6905 -2.83759 3.27174
head 6.65937 -1.25389 1.21259
rclavicle -1.98931e-014 -8.82107e-015
rhumerus -47.4642 -3.2431 -86.5932
rradius 42.8664
rwrist 15.1411
rhand -7.45313 -29.3618
rfingers 7.12502
rthumb 18.435 -58.5082
lclavicle -1.98931e-014 -8.82107e-015
lhumerus -41.2475 -2.57953 94.3259
lradius 37.6013
lwrist -4.38302
lhand -4.25067 -21.3673
lfingers 7.12502
lthumb 21.5132 7.45797
rfemur 9.13965 -3.12495 17.6867
rtibia 2.70347e-014
rfoot -12.8282 -5.49644
rtoes -5.95241
lfemur 0.0920804 -9.92477 -11.8133
ltibia 21.7266
lfoot -24.382 10.654
ltoes -55.1926
869
root -0.814538 18.6507 5.88857 -0.436346 -4.59805 -4.0732
lowerback 3.45531 1.27781 1.96259
upperback -0.448026 1.82558 1.60549
thorax -2.38832 0.894695 0.449227
lowerneck -8.91534 -1.90135 -2.55657
upperneck 16.4842 -2.80204 3.45847
head 6.56568 -1.23205 1.2967
rclavicle -1.15827e-014 -1.2921e-014
rhumerus -47.4901 -3.24938 -86.5699
rradius 42.88
rwrist 15.3023
rhand -8.80159 -28.1138
rfingers 7.12502
rthumb 17.1374 -57.378
lclavicle -1.15827e-014 -1.2921e-014
lhumerus -41.2502 -2.38226 94.1478
lradius 37.4772
lwrist -4.47995
lhand -4.17593 -21.4564
lfingers 7.12502
lthumb 21.585 7.36062
rfemur 9.122 -3.12234 17.6701
rtibia 6.36111e-015
rfoot -12.8176 -5.47461
rtoes -5.69259
lfemur 0.060235 -9.84468 -11.8086
ltibia 21.7383
lfoot -24.3665 10.5833
ltoes -55.2073
870
root -0.813701 18.6506 5.88832 -0.417354 -4.62139 -4.07331
lowerback 3.43667 1.26627 1.93836
upperback -0.436403 1.80843 1.61244
thorax -2.36696 0.886712 0.471425
lowerneck -8.89568 -1.8938 -2.52204
upperneck 16.4687 -2.79112 3.42395
head 6.55597 -1.22778 1.28098
rclavicle -7.91248e-015 -6.22444e-015
rhumerus -47.5151 -3.26523 -86.5542
rradius 42.8686
rwrist 15.3905
rhand -9.98199 -27.1939
rfingers 7.12502
rthumb 16.001 -56.553
lclavicle -7.91248e-015 -6.22444e-015
lhumerus -41.252 -2.2489 93.9871
lradius 37.3665
lwrist -4.56717
lhand -4.11587 -21.6308
lfingers 7.12502
lthumb 21.6427 7.17958
rfemur 9.09884 -3.09924 17.6664
rtibia -1.59028e-015
rfoot -12.8361 -5.44253
rtoes -5.45263
lfemur 0.0321542 -9.80368 -11.8048
ltibia 21.7536
lfoot -24.3856 10.5667
ltoes -55.1891
871
root -0.812056 18.6511 5.88837 -0.406713 -4.61483 -4.06959
lowerback 3.42029 1.25416 1.94208
upperback -0.422766 1.7913 1.60128
thorax -2.34334 0.878259 0.459373
lowerneck -8.95932 -1.91398 -2.36359
upperneck 16.5535 -2.81235 3.23531
head 6.59012 -1.24246 1.19209
rclavicle -1.23396e-014 1.11506e-014
rhumerus -47.5622 -3.26831 -86.5675
rradius 42.8641
rwrist 15.2876
rhand -10.0962 -27.0854
rfingers 7.12502
rthumb 15.891 -56.4534
lclavicle -1.23396e-014 1.11506e-014
lhumerus -41.3059 -2.28373 93.8878
lradius 37.3521
lwrist -4.53462
lhand -4.16837 -21.7841
lfingers 7.12502
lthumb 21.5923 7.0321
rfemur 9.09299 -3.10544 17.6549
rtibia 2.06736e-014
rfoot -12.8479 -5.42882
rtoes -5.3456
lfemur 0.00802089 -9.72999 -11.7989
ltibia 21.7682
lfoot -24.3494 10.5187
ltoes -55.1803
